<svg width="185" height="71" viewBox="0 0 185 71" fill="none" xmlns="http://www.w3.org/2000/svg">
<g filter="url(#filter0_fg_341_2543)">
<rect x="14.748" y="14.749" width="154.864" height="40.5596" fill="#545A64" fill-opacity="0.74"/>
</g>
<g filter="url(#filter1_f_341_2543)">
<path d="M91.6786 30.1417C91.8343 30.1598 91.9879 30.1603 92.1332 30.1484C92.3975 30.1305 92.6623 30.0973 92.9815 30.1172C93.2861 30.1474 93.7374 30.1945 94.1251 30.6988C94.4846 31.1948 94.5747 31.6502 94.5952 32.1283C94.5805 33.4791 94.2465 33.6107 94.2123 35.0158C94.1571 36.4096 93.8366 37.755 93.9257 38.3677C94.0143 38.9741 93.6442 39.0259 93.7254 39.8807C93.7412 40.0273 93.7555 40.1688 93.7678 40.2956C93.8304 40.9059 93.8261 41.3921 93.7608 42.0308C93.7156 42.5 93.6847 43.5506 93.6278 44.4967C93.6277 44.5074 93.6217 44.5375 93.6191 44.5479C93.4375 45.158 93.1788 45.6985 93.0199 46.0286C92.7791 46.5595 92.2373 46.9805 91.7318 47.1726C91.7283 47.1748 91.717 47.1802 91.7133 47.1821C91.4002 47.2765 91.1118 47.3054 90.89 47.3354C90.7049 47.36 90.5584 47.3622 90.4452 47.3573C90.3971 47.3551 90.3718 47.3363 90.3676 47.3139C90.3676 47.3139 90.3676 47.3139 90.3676 47.3138C90.3625 47.2859 90.3902 47.2525 90.4481 47.2379C90.7202 47.1667 91.1374 47.0471 91.5217 46.7631L91.5043 46.772C91.5121 46.765 91.52 46.758 91.5278 46.7508C92.1307 46.1035 92.3937 46.2014 92.8708 45.0697C92.9552 44.8291 93.0088 44.6003 93.0481 44.3787L93.0329 44.4686C92.9751 43.5836 92.8734 42.8718 92.9055 41.682C92.9192 41.1312 92.8442 40.7403 92.7684 40.3413C92.6419 39.6473 92.5009 38.9649 92.7921 37.6004C93.2557 35.4785 92.7877 35.1739 92.7953 33.1266C92.7934 32.549 92.7415 31.7554 92.6547 31.5882C92.7563 31.7109 92.7578 31.6367 92.6349 31.6026C92.5198 31.5625 92.3431 31.536 92.1599 31.5267C91.0647 31.4828 90.1009 31.4023 89.4715 31.4141C88.1893 31.4445 86.4567 31.4659 84.7452 31.6423C83.838 31.7121 82.6717 32.1982 82.7585 32.6446C82.684 33.5414 82.6653 34.4655 82.6227 35.3469C82.5897 36.0315 82.5807 36.8195 82.6116 37.6048C82.6623 39.1548 82.597 40.6619 82.5544 41.5282C82.4799 42.8515 82.4605 43.1728 82.5489 44.4407C82.599 45.1701 82.5728 46.178 82.431 47.0267C82.3592 47.4542 82.2588 47.3582 82.2097 46.9284C82.1374 46.3007 82.1795 45.783 82.0504 45.4618C81.7919 44.8178 81.6923 44.5469 81.8243 43.7283C81.9556 42.9105 81.6138 42.5334 81.6398 42.0586C81.6605 41.5852 81.8784 41.5786 81.6153 39.1836C81.5513 38.6376 81.4897 38.1474 81.4223 37.7281C81.189 36.1936 81.1629 35.2168 81.1402 34.4881C81.1284 34.0186 81.182 33.2943 81.2939 32.4949C81.3531 31.8713 81.8111 31.2889 82.2588 31.0102C82.7119 30.7118 83.1503 30.5658 83.5511 30.4368C85.1625 29.9009 88.2457 29.9995 89.47 29.8987C90.6966 29.8025 90.6965 30.0257 91.6786 30.1417Z" fill="#F3F4ED"/>
<path d="M89.6981 36.8521C89.9542 36.9658 90.1317 36.4171 90.4393 36.4815C90.7455 36.5456 90.8057 36.8308 91.1516 36.7501C91.3352 36.7074 91.5216 36.7364 91.6759 36.7548L91.6598 36.7559C91.7987 36.7686 91.9153 36.7723 91.9821 36.7099C92.1228 36.5775 92.1748 36.9314 92.3852 36.829C92.5949 36.7262 92.7322 36.7568 92.9385 36.8488C92.9953 36.8741 93.0823 36.8943 93.1827 36.9068C93.4475 36.9397 93.8056 36.9192 93.9505 36.798C94.1505 36.6303 94.4273 36.8478 94.5818 36.89C94.6301 36.9031 94.6692 36.9241 94.6999 36.947C94.7129 36.9567 94.7208 36.979 94.7233 37.0017C94.7233 37.0017 94.7233 37.0017 94.7233 37.0017C94.7263 37.0299 94.7207 37.0586 94.7059 37.0638C94.6342 37.089 94.5292 37.1466 94.4113 37.2635C94.192 37.4817 94.1414 37.2741 93.8269 37.4114C93.6176 37.5031 93.4716 37.6316 93.2784 37.6836C93.1816 37.7097 93.0728 37.7167 92.9383 37.6899C92.5367 37.6084 92.503 38.1518 91.915 37.9028C91.8539 37.8765 91.7993 37.8588 91.7496 37.8485C91.7468 37.8483 91.7382 37.8498 91.7354 37.8495C91.319 37.7486 91.2453 38.2069 90.7547 38.2946C90.2083 38.3922 89.5054 38.1082 89.1771 38.144C88.848 38.1799 88.4072 38.2579 87.938 38.1964C87.4685 38.135 86.8978 38.3341 86.378 38.2131C85.8596 38.0924 85.1306 37.9386 84.7906 37.8319C84.4537 37.7253 84.37 37.7012 84.0472 37.7724C83.8612 37.8132 83.6041 37.7784 83.3866 37.6352C83.2808 37.563 83.3027 37.4624 83.4119 37.4141C83.5714 37.3434 83.7011 37.3895 83.7859 37.2632C83.9452 37.0107 84.0157 36.9136 84.2248 37.0577C84.4361 37.2016 84.5278 36.868 84.6496 36.9047C84.7699 36.9412 84.7719 37.1379 85.3857 36.977C85.998 36.8157 86.3353 36.77 86.5673 36.729C86.8001 36.6879 87.2902 36.8472 87.6686 36.7762C88.0467 36.7057 88.82 36.7401 89.1274 36.6294C89.4353 36.519 89.4425 36.7382 89.6981 36.8521Z" fill="#F3F4ED"/>
<path d="M88.9455 40.5873C89.0922 40.6409 89.201 40.4942 89.3266 40.36C89.3319 40.3586 89.3487 40.3591 89.354 40.3579C89.4567 40.2535 89.5673 40.1577 89.7069 40.1838C90.0192 40.2424 90.0819 40.5265 90.4316 40.442C90.7816 40.3574 91.1464 40.5353 91.2982 40.4096C91.4351 40.2965 91.4762 40.5731 91.6433 40.5646C91.6619 40.5636 91.6821 40.5591 91.7043 40.5501C91.9246 40.4607 92.0625 40.5015 92.2627 40.6094C92.463 40.7171 93.0662 40.793 93.2789 40.6426C93.4917 40.4921 93.7493 40.7303 93.9009 40.7835C93.9481 40.8001 93.9856 40.8238 94.0147 40.8488C94.027 40.8594 94.0333 40.8823 94.0341 40.905C94.0341 40.905 94.0341 40.9051 94.0341 40.9051C94.0351 40.9334 94.0276 40.9616 94.0125 40.9658C93.9389 40.9858 93.8296 41.0357 93.7023 41.1433C93.465 41.3439 93.4305 41.133 93.1045 41.2438C92.7784 41.3548 92.5887 41.5592 92.1965 41.4479C91.9726 41.3845 91.8549 41.5325 91.6921 41.6197C91.5695 41.6852 91.4216 41.7163 91.1813 41.5988C90.62 41.3255 90.5929 41.8861 90.0535 41.9914C89.8649 42.0282 89.656 42.0198 89.4497 41.995L89.4814 41.9926C89.0978 41.96 88.7243 41.8731 88.5137 41.9121C88.1907 41.9719 87.7628 42.0845 87.2945 42.0668C86.8265 42.0488 86.2824 42.3063 85.7597 42.2468C85.2364 42.1865 84.4945 42.1315 84.1444 42.075C83.7957 42.0178 83.7107 42.0064 83.4013 42.1253C83.2233 42.1932 82.9616 42.1999 82.724 42.0857C82.6041 42.0268 82.6221 41.9241 82.7205 41.8634C82.8681 41.7727 83.0049 41.7979 83.0645 41.6614C83.1868 41.3875 83.2411 41.2809 83.4708 41.3919C83.7013 41.5027 83.7441 41.1593 83.8713 41.1777C83.9986 41.1965 84.0266 41.3889 84.6179 41.1458C85.2105 40.9035 85.5475 40.8187 85.775 40.7507C86.0045 40.6824 86.516 40.7865 86.8902 40.6789C87.2658 40.5698 88.0488 40.5377 88.3527 40.4053C88.6571 40.2723 88.6786 40.4908 88.9455 40.5873Z" fill="#F3F4ED"/>
<path d="M87.6421 26.8989C87.7599 26.7543 87.2146 26.6637 87.2846 26.4914C87.3544 26.3186 87.6406 26.2813 87.5675 26.0891C87.5171 25.9577 87.5898 25.819 87.5999 25.7205L87.6012 25.7393C87.6044 25.6962 87.5949 25.6608 87.5558 25.6385C87.4302 25.5672 87.7847 25.5226 87.6927 25.4085C87.6007 25.2946 87.6382 25.2115 87.743 25.0876C87.7761 25.0487 87.8054 24.9869 87.8267 24.917C87.8734 24.7643 87.8822 24.5829 87.7786 24.5097C87.6291 24.4055 87.8619 24.2575 87.9077 24.1661C87.9222 24.1386 87.9438 24.1151 87.9671 24.0957C87.9769 24.0874 87.9992 24.0807 88.0217 24.077C88.0217 24.077 88.0217 24.077 88.0217 24.077C88.0497 24.0724 88.078 24.0726 88.083 24.0807C88.1068 24.1196 88.1614 24.1746 88.2724 24.2397C88.4784 24.3642 88.2689 24.4013 88.3783 24.5831C88.4454 24.6959 88.5472 24.7759 88.5899 24.8635C88.6163 24.9181 88.6203 24.9791 88.5796 25.0629C88.4737 25.285 89.0132 25.2784 88.7416 25.6297C88.738 25.6343 88.7346 25.6388 88.7313 25.6433C88.7305 25.647 88.7334 25.6585 88.7326 25.6622C88.4715 25.9725 89.0166 25.9831 89.1024 26.2848C89.1892 26.5912 88.8944 26.9897 88.9253 27.1735C88.9564 27.3576 89.0282 27.6046 88.9609 27.8684C88.8936 28.1321 89.086 28.4515 88.9595 28.7434C88.8332 29.0343 88.6724 29.445 88.563 29.6344C88.4535 29.8237 88.4288 29.8693 88.4978 30.0504C88.5374 30.1542 88.5012 30.2978 88.3576 30.4195C88.2854 30.4796 88.1848 30.4662 88.1366 30.4056C88.0662 30.3152 88.1129 30.2423 87.987 30.1971C87.7354 30.1061 87.6388 30.0684 87.7844 29.9513C87.9298 29.8342 87.597 29.783 87.6346 29.7144C87.6722 29.6473 87.8687 29.6462 87.7135 29.304C87.5581 28.9629 87.5162 28.7755 87.4776 28.6462C87.4391 28.5168 87.604 28.2423 87.5377 28.0319C87.4717 27.8217 87.5166 27.3901 87.4107 27.22C87.3049 27.0502 87.5242 27.043 87.6421 26.8989Z" fill="#F3F4ED"/>
<path d="M92.5399 25.5774C92.6932 25.54 92.2349 25.241 92.3537 25.1659C92.3888 25.1435 92.437 25.1367 92.4875 25.1341L92.4797 25.1517C92.5986 25.1459 92.7321 25.1621 92.7262 25.0562C92.7175 24.9063 92.9516 24.8491 92.8651 24.7472C92.7784 24.6457 93.1127 24.7715 93.0718 24.6597C93.0308 24.548 93.0941 24.5149 93.2308 24.4853C93.3672 24.4564 93.5477 24.2709 93.4475 24.1374C93.3472 24.004 93.6142 24.0028 93.6905 23.97C93.7144 23.9596 93.7431 23.9552 93.7715 23.9542C93.7835 23.9539 93.8058 23.9604 93.8269 23.9688C93.8269 23.9688 93.827 23.9688 93.827 23.9688C93.8533 23.9794 93.8779 23.993 93.8789 24.0001C93.8838 24.0348 93.9106 24.0914 93.9863 24.1791C94.1286 24.3401 93.9275 24.2719 93.9704 24.4303C94.0132 24.5893 94.1676 24.7342 93.9918 24.8315C93.8163 24.928 94.2989 25.1579 93.9369 25.2501C93.5741 25.3426 94.0857 25.5685 94.0619 25.8165C94.0615 25.8199 94.0611 25.8232 94.0607 25.8264C94.0576 25.8295 94.055 25.8434 94.0518 25.8464C94.0166 26.077 93.6268 26.2009 93.5919 26.3304C93.5564 26.4625 93.5346 26.6541 93.3835 26.7905C93.2724 26.8907 93.2752 27.0752 93.1994 27.2155C93.1971 27.2175 93.1946 27.2271 93.1922 27.2291C93.1643 27.2783 93.1268 27.321 93.0708 27.3518C92.8578 27.4692 92.575 27.6449 92.4145 27.7103C92.2537 27.776 92.2161 27.7935 92.2175 27.938C92.2189 28.0208 92.1398 28.0919 91.9788 28.1025C91.9387 28.1045 91.8976 28.0945 91.857 28.0956C91.8177 28.0749 91.7917 28.0388 91.7796 28.0062C91.7457 27.9096 91.8119 27.8845 91.7151 27.797C91.5219 27.6224 91.4505 27.5507 91.6194 27.5431C91.7883 27.5357 91.5127 27.3463 91.5698 27.3201C91.6266 27.2948 91.7993 27.3869 91.7832 27.0973C91.7675 26.8073 91.7986 26.6694 91.8113 26.5697C91.8141 26.5471 91.8291 26.5248 91.851 26.5015L91.8435 26.5156C91.914 26.4386 92.0582 26.3549 92.068 26.2306C92.0811 26.0698 92.2655 25.8243 92.2273 25.6714C92.1892 25.519 92.3869 25.614 92.5399 25.5774Z" fill="#F3F4ED"/>
<path d="M83.423 27.1333C83.4515 26.9802 82.995 27.2831 82.9659 27.1336C82.961 27.1077 82.9631 27.08 82.9691 27.0516C82.9978 26.9164 83.118 26.7703 82.9981 26.7077C82.8511 26.6292 82.9185 26.3909 82.785 26.4086C82.6505 26.4248 82.9354 26.2097 82.8183 26.182C82.7008 26.1534 82.707 26.0803 82.7585 25.95C82.8095 25.8197 82.7612 25.5673 82.5952 25.5725C82.4279 25.5766 82.5832 25.3598 82.6016 25.2791C82.6073 25.2539 82.6207 25.2282 82.6368 25.2049C82.6436 25.195 82.662 25.1808 82.6813 25.1687C82.6813 25.1687 82.6813 25.1687 82.6813 25.1687C82.7053 25.1536 82.7307 25.1416 82.737 25.1448C82.7674 25.1605 82.8291 25.1722 82.9435 25.1602C83.1561 25.1367 82.9831 25.2599 83.1354 25.3132C83.2879 25.3662 83.4925 25.3184 83.4699 25.5109C83.4496 25.7054 83.9015 25.4228 83.7753 25.7601C83.6569 26.1038 84.1098 25.777 84.2846 25.8691C84.2954 25.8748 84.3056 25.8819 84.3147 25.8897C84.4543 26.0072 84.4325 26.3851 84.5359 26.474C84.6348 26.557 84.7839 26.6593 84.8551 26.8264C84.8564 26.8315 84.8692 26.8429 84.8703 26.8481C84.8776 26.868 84.8836 26.8887 84.8883 26.9104C84.9296 27.1047 85.2113 27.1935 85.2135 27.4374C85.2158 27.6808 85.2323 28.0141 85.209 28.1862C85.1856 28.3579 85.1814 28.3986 85.3064 28.4728C85.3782 28.5159 85.4014 28.6251 85.3186 28.7734C85.2761 28.848 85.1797 28.88 85.1196 28.87C85.0299 28.853 85.0448 28.7864 84.9206 28.8234C84.6728 28.8986 84.5777 28.9278 84.6609 28.7837C84.7435 28.639 84.4407 28.7816 84.449 28.7228C84.4566 28.6632 84.6233 28.5587 84.3674 28.4385C84.1114 28.319 84.0075 28.2309 83.9276 28.175C83.848 28.1195 83.8855 27.8673 83.7524 27.7784C83.7155 27.7535 83.68 27.7148 83.6439 27.6694L83.659 27.6911C83.5694 27.5878 83.4774 27.4567 83.3717 27.4441C83.2262 27.4271 83.3931 27.2853 83.423 27.1333Z" fill="#F3F4ED"/>
<path d="M77.5521 27.1327C77.5253 26.9762 77.191 27.4096 77.1238 27.2848C77.0894 27.222 77.1031 27.1256 77.1052 27.0432L77.1181 27.05C77.1198 26.9684 77.1106 26.901 77.0373 26.9005C76.8936 26.9006 76.8591 26.6706 76.7579 26.7561C76.6598 26.843 76.7907 26.5105 76.681 26.5521C76.5726 26.5947 76.5417 26.5334 76.5094 26.3979C76.4776 26.262 76.2813 26.0886 76.1517 26.1958C76.023 26.3028 76.0069 26.0368 75.9672 25.962C75.955 25.9388 75.9485 25.9103 75.9455 25.882C75.9443 25.8699 75.9493 25.8473 75.9564 25.8256C75.9564 25.8256 75.9564 25.8256 75.9564 25.8256C75.9652 25.7986 75.9773 25.7732 75.9844 25.7718C76.0192 25.7649 76.0758 25.7352 76.1595 25.6545C76.3157 25.5042 76.2582 25.7084 76.4188 25.6589C76.5798 25.6099 76.725 25.4516 76.8369 25.6286C76.9442 25.8054 77.1805 25.3225 77.2925 25.6998C77.3832 26.0511 77.6183 25.6413 77.8569 25.6277C77.8593 25.6305 77.8707 25.6335 77.873 25.6363C77.8882 25.6355 77.9031 25.6363 77.9179 25.6392C78.1576 25.6854 78.2601 26.0988 78.3918 26.1474C78.5251 26.1963 78.7215 26.2388 78.8526 26.41C78.9811 26.5794 79.2974 26.5678 79.4093 26.8166C79.4691 26.9515 79.5424 27.1151 79.5986 27.2717C79.6025 27.2797 79.6267 27.2946 79.6298 27.3029C79.6537 27.4249 79.672 27.5371 79.6763 27.6172C79.6856 27.7941 79.6891 27.8358 79.8279 27.8902C79.9078 27.9215 79.9492 28.0252 79.899 28.1846C79.8733 28.2632 79.7968 28.3293 79.7276 28.3244C79.6302 28.3208 79.6306 28.2497 79.5139 28.3075C79.2809 28.423 79.1904 28.4661 79.2441 28.3062C79.298 28.1465 79.0231 28.3377 79.0195 28.2762C79.0156 28.2148 79.1621 28.0835 78.8831 28.0009C78.8781 27.9994 78.8731 27.9979 78.8682 27.9964L78.9057 28.0339C78.6624 28.01 78.5434 27.9729 78.4561 27.9522C78.3689 27.9328 78.3158 27.6886 78.159 27.6603C78.0054 27.6323 77.7792 27.4278 77.6224 27.4529C77.4671 27.4782 77.5775 27.2888 77.5521 27.1327Z" fill="#F3F4ED"/>
<path d="M75.9368 34.7848C75.8317 34.6557 75.7102 35.1909 75.581 35.1065C75.4522 35.0222 75.4482 34.734 75.2915 34.7906C75.2328 34.812 75.176 34.7966 75.1236 34.7752C75.0371 34.7398 74.9627 34.6879 74.9168 34.7597C74.8433 34.8749 74.8504 34.5178 74.749 34.5932C74.648 34.6687 74.5902 34.6199 74.5084 34.5008C74.4266 34.3817 74.165 34.2734 74.0638 34.4127C73.9627 34.5519 73.8612 34.301 73.797 34.2401C73.777 34.2212 73.7616 34.1956 73.7501 34.1692C73.7452 34.158 73.7435 34.1348 73.7443 34.1121C73.7443 34.112 73.7443 34.112 73.7443 34.112C73.7452 34.0837 73.7499 34.0559 73.7568 34.0525C73.7903 34.0363 73.8409 33.992 73.9023 33.8911C74.017 33.703 74.0216 33.9153 74.1711 33.8218C74.3205 33.7283 74.4154 33.5343 74.5834 33.668C74.7508 33.8017 74.8112 33.27 75.0443 33.5823C75.0949 33.6503 75.1368 33.6772 75.174 33.677C75.3078 33.6765 75.3834 33.3258 75.5806 33.2788C75.7631 33.2355 75.9609 33.3944 76.1099 33.4784C76.1153 33.4807 76.1338 33.4781 76.1391 33.4807C76.1998 33.5156 76.2519 33.5397 76.2952 33.5373C76.4493 33.5281 76.663 33.4886 76.866 33.5924C77.0682 33.6957 77.3612 33.5555 77.5715 33.7282C77.781 33.8999 78.0695 34.1298 78.1921 34.2709C78.3151 34.4119 78.3448 34.4445 78.4998 34.4103C78.5896 34.3907 78.6903 34.4521 78.7515 34.6117C78.7829 34.6919 78.755 34.789 78.6949 34.8256C78.6089 34.8792 78.5616 34.82 78.4976 34.9344C78.3701 35.163 78.3181 35.2499 78.2615 35.087C78.2042 34.924 78.0904 35.2391 78.0469 35.1903C78.0048 35.142 78.0456 34.949 77.753 35.0419C77.4615 35.1358 77.3148 35.1488 77.2104 35.1667C77.1071 35.1847 76.9301 34.982 76.7603 35.0188C76.5922 35.0546 76.2744 34.9572 76.1332 35.044C76.0487 35.0956 76.0238 35.038 75.9958 34.9547L76.0248 34.957C76.0024 34.9023 75.979 34.8364 75.9368 34.7848Z" fill="#F3F4ED"/>
<path d="M77.3772 43.8478C77.1681 43.9062 77.4905 44.3643 77.2886 44.4828C77.0868 44.6008 76.8482 44.4377 76.7322 44.6699C76.6157 44.9023 76.3012 44.9606 76.3147 45.1226C76.3279 45.285 76.0544 45.0553 76.0067 45.2263C75.9585 45.3974 75.858 45.4379 75.6784 45.4608C75.5879 45.4721 75.4501 45.5402 75.3349 45.63C75.2179 45.7195 75.1235 45.828 75.116 45.9329C75.1 46.1465 74.797 46.0872 74.6802 46.1121C74.6434 46.1203 74.6074 46.1187 74.5754 46.1123C74.5618 46.1096 74.5436 46.0949 74.5285 46.0778C74.5285 46.0778 74.5285 46.0778 74.5285 46.0778C74.5097 46.0566 74.4957 46.0317 74.5014 46.0219C74.5289 45.9743 74.5574 45.8879 74.5552 45.7509C74.549 45.4964 74.7064 45.6404 74.8009 45.4104C74.8332 45.3301 74.8484 45.2488 74.8665 45.1728C74.8936 45.0356 74.935 44.9129 75.1142 44.8411C75.3913 44.7281 75.037 44.3258 75.5151 44.2437C75.9946 44.1577 75.6023 43.7587 75.7926 43.4246C75.9827 43.0902 76.5257 42.9211 76.6524 42.7275C76.7605 42.5624 76.8819 42.3346 77.077 42.143L77.0168 42.2297C77.0452 42.1925 77.0757 42.1562 77.1087 42.1212C77.3384 41.8776 77.3802 41.4366 77.6738 41.1895C77.9675 40.9428 78.3652 40.5788 78.5794 40.4278C78.794 40.2762 78.8436 40.2394 78.9003 40.0063C78.9324 39.8739 79.0588 39.7301 79.2646 39.6766C79.3687 39.6501 79.4401 39.7238 79.4406 39.8112C79.4409 39.9413 79.3551 39.9944 79.4332 40.1088C79.5914 40.3349 79.6512 40.4238 79.4518 40.4764C79.2524 40.5295 79.5067 40.7545 79.4312 40.8095C79.3555 40.8649 79.1863 40.7657 79.1016 41.2195C79.0171 41.6728 78.9301 41.901 78.8786 42.0629C78.8268 42.2252 78.5059 42.4393 78.421 42.7044C78.3955 42.7846 78.347 42.8822 78.2907 42.986C78.2842 43.0062 78.2401 43.0532 78.2309 43.0723C78.0704 43.2886 77.866 43.5282 77.8209 43.6923C77.7557 43.9285 77.5864 43.7887 77.3772 43.8478Z" fill="#F3F4ED"/>
<path d="M106.149 30.3577C106.452 30.4786 106.685 29.9356 107.054 30.0103C107.421 30.085 107.479 30.3721 107.898 30.3054C108.319 30.2387 108.741 30.4332 108.928 30.3142C109.115 30.1952 109.136 30.5522 109.402 30.4717C109.668 30.3911 109.829 30.437 110.063 30.5519C110.296 30.6669 111.011 30.7627 111.27 30.6189C111.53 30.4751 111.827 30.7212 112.006 30.779C112.062 30.7971 112.105 30.8219 112.139 30.8477C112.153 30.8587 112.16 30.8818 112.16 30.9045C112.16 30.9046 112.16 30.9046 112.16 30.9046C112.16 30.933 112.15 30.9609 112.132 30.9646C112.043 30.9824 111.911 31.0289 111.755 31.1325C111.465 31.3257 111.432 31.1138 111.039 31.2142C110.646 31.3146 110.41 31.5128 109.946 31.3875C109.482 31.2623 109.378 31.7961 108.723 31.497C108.068 31.1979 108.001 31.756 107.351 31.8334C106.698 31.9108 105.875 31.6075 105.483 31.6352C105.089 31.6629 104.565 31.7309 104.006 31.6609C103.573 31.6063 103.057 31.7102 102.563 31.6989C102.421 31.6958 102.284 31.6834 102.149 31.6558C101.533 31.5299 100.666 31.3748 100.263 31.2723C99.9649 31.1955 99.8331 31.1644 99.6265 31.1844C99.5533 31.1905 99.4733 31.2027 99.3747 31.2211C99.153 31.2624 98.845 31.2283 98.5861 31.0855C98.4553 31.0134 98.4854 30.9129 98.6156 30.8644C98.8062 30.7933 98.9635 30.8391 99.0609 30.7126C99.256 30.4596 99.3377 30.3625 99.5874 30.5059C99.5974 30.5116 99.6072 30.5166 99.6169 30.5209C99.8409 30.6208 99.9495 30.3129 100.09 30.3466C100.237 30.3822 100.239 30.5764 100.976 30.4147C101.713 30.2539 102.12 30.2124 102.398 30.1736C102.441 30.1676 102.492 30.1665 102.551 30.1687C102.856 30.181 103.336 30.2905 103.718 30.2362C104.175 30.1716 105.098 30.2224 105.472 30.1199C105.844 30.0173 105.846 30.2367 106.149 30.3577Z" fill="#F3F4ED"/>
<path d="M107.161 39.1498C106.882 39.5791 107.223 40.1616 106.87 40.6889C106.513 41.2011 106.221 41.1328 105.919 41.7471C105.898 41.7894 105.875 41.8309 105.852 41.871C105.481 42.5103 104.855 42.8184 104.694 43.0858C104.508 43.3778 104.272 43.1109 103.953 43.4145C103.626 43.7157 103.372 43.8023 102.996 43.8806C102.984 43.8832 102.971 43.8862 102.957 43.8895C102.955 43.891 102.948 43.8943 102.945 43.8957C102.513 44.0056 101.488 44.2854 101.152 44.5395C101.141 44.5475 101.131 44.5552 101.12 44.5626C100.788 44.8026 100.28 44.7278 100.006 44.7559C99.9172 44.7654 99.8431 44.7629 99.7858 44.754C99.7611 44.7503 99.744 44.7316 99.737 44.7099C99.737 44.7099 99.737 44.7099 99.737 44.7098C99.7283 44.6828 99.7355 44.6512 99.7616 44.6391C99.8883 44.5801 100.073 44.4725 100.271 44.2976C100.538 44.0621 100.668 44.0904 100.933 44.013C101.036 43.984 101.155 43.9402 101.307 43.8579C101.788 43.5922 102.061 43.3189 102.556 43.1353L102.539 43.1443C102.605 43.115 102.676 43.0868 102.752 43.0602C103.436 42.8051 103.307 42.3101 104.189 41.968C104.666 41.7566 104.763 41.473 104.792 41.1958C104.836 40.9242 104.862 40.6278 105.048 40.2271C105.462 39.3675 106.148 38.3768 106.185 37.8331C106.206 37.6442 106.211 37.4344 106.195 37.2214C106.165 36.7451 106.14 36.2098 106.164 35.6551C106.203 34.7847 105.946 33.7439 105.985 32.7773C105.989 32.6761 105.993 32.5701 105.998 32.4608C106.031 31.5107 106.104 30.3464 106.173 29.7756C106.25 29.1381 106.268 28.9834 106.175 28.3786C106.122 28.0298 106.142 27.548 106.277 27.1362C106.346 26.9303 106.447 26.9749 106.499 27.1791C106.576 27.4765 106.538 27.7248 106.668 27.875C106.93 28.1737 107.032 28.3004 106.902 28.6949C106.773 29.0903 107.114 29.2578 107.088 29.4853C107.063 29.7128 106.861 29.722 107.086 30.8614C107.213 31.495 107.302 31.9666 107.37 32.3317C107.425 32.6275 107.463 32.8601 107.496 33.054C107.573 33.4926 107.475 34.4343 107.569 35.1523C107.638 35.6543 107.654 36.512 107.689 37.1894C107.705 37.5471 107.685 37.8526 107.683 38.0635C107.66 38.7517 107.431 38.7028 107.161 39.1498Z" fill="#F3F4ED"/>
<path d="M102.776 38.6102C103.069 38.8968 103.528 38.4598 104.023 38.6394C104.179 38.6943 104.298 38.7598 104.404 38.8281C104.484 38.9495 104.633 39.0983 104.985 38.9694C105.481 38.7826 106.116 38.6558 106.293 38.4172C106.465 38.1785 106.679 38.4694 106.967 38.182C107.148 37.9973 107.3 37.8868 107.477 37.7985L107.374 37.9093C107.449 37.8343 107.532 37.7618 107.627 37.6772C107.918 37.4702 108.358 36.4385 108.156 36.0767C108.121 35.9969 108.101 35.9196 108.089 35.8438L108.103 35.8961C108.026 35.661 107.976 35.3145 107.892 35.1158C107.857 35.0357 107.838 34.9662 107.829 34.9089C107.825 34.8846 107.838 34.8628 107.856 34.8494C107.856 34.8494 107.856 34.8494 107.856 34.8494C107.879 34.8328 107.911 34.8293 107.93 34.8501C108.025 34.9528 108.183 35.0866 108.405 35.2511C108.596 35.3957 108.662 35.5306 108.703 35.6826C108.706 35.6925 108.715 35.7212 108.716 35.7315C108.73 35.9153 108.717 36.1014 108.73 36.4679C108.733 37.1374 108.763 37.6366 108.253 38.2607C108.209 38.3126 108.17 38.362 108.136 38.4105C108.116 38.4358 108.059 38.5049 108.032 38.5222C107.539 38.8561 107.591 39.3657 106.579 39.6094C106.026 39.7265 105.779 39.887 105.504 40.0904C105.22 40.2719 104.955 40.5852 104.12 40.5188C104.1 40.5162 104.08 40.5132 104.06 40.51C103.143 40.4368 101.476 39.6834 101.143 38.6663C101.089 38.5513 101.044 38.4295 101.009 38.2993C100.843 37.69 100.69 36.8838 100.893 36.0058C101.015 35.4957 101.177 34.8682 101.634 34.3242C101.975 33.9139 102.414 33.5043 102.967 33.2926C103.235 33.1896 103.551 33.1076 103.883 33.0885C104.567 33.0584 105.491 33.0595 106.023 33.431C106.105 33.4864 106.179 33.5384 106.243 33.5856C106.761 33.9941 106.887 34.042 107.404 34.487C107.528 34.6117 107.662 34.8237 107.66 35.0858C107.652 35.3275 107.608 35.587 107.492 35.8095C107.441 35.9124 107.366 35.9361 107.347 35.8937C107.311 35.8782 107.293 35.827 107.281 35.731C107.246 35.4762 107.269 35.2536 107.173 35.1103C107.164 35.1024 107.154 35.0955 107.143 35.0897C106.854 34.9815 106.804 35.0844 106.675 34.7641C106.51 34.4465 106.173 34.6455 106.021 34.5173C105.918 34.4355 105.918 34.3353 105.664 34.1883C105.561 34.1262 105.384 34.0649 105.036 34.1211C104.693 34.1792 104.372 34.2775 104.09 34.3529C103.756 34.4653 103.547 34.6284 103.385 34.7654C103.248 34.8837 102.986 35.0475 102.72 35.2985C102.557 35.4363 102.418 35.6627 102.376 35.9052C102.262 36.3504 102.257 37.3978 102.468 37.9654C102.486 38.0079 102.508 38.0373 102.531 38.058C102.719 38.1835 102.54 38.3204 102.776 38.6102Z" fill="#F3F4ED"/>
</g>
<defs>
<filter id="filter0_fg_341_2543" x="-0.000887871" y="8.86917e-05" width="184.361" height="70.0574" filterUnits="userSpaceOnUse" color-interpolation-filters="sRGB">
<feFlood flood-opacity="0" result="BackgroundImageFix"/>
<feBlend mode="normal" in="SourceGraphic" in2="BackgroundImageFix" result="shape"/>
<feGaussianBlur stdDeviation="7.37447" result="effect1_foregroundBlur_341_2543"/>
<feTurbulence type="fractalNoise" baseFrequency="2.0089335441589355 2.0089335441589355" numOctaves="3" seed="1828" />
<feDisplacementMap in="effect1_foregroundBlur_341_2543" scale="4.1665740013122559" xChannelSelector="R" yChannelSelector="G" result="displacedImage" width="100%" height="100%" />
<feMerge result="effect2_texture_341_2543">
<feMergeNode in="displacedImage"/>
</feMerge>
</filter>
<filter id="filter1_f_341_2543" x="72.8223" y="23.0323" width="40.2596" height="25.2489" filterUnits="userSpaceOnUse" color-interpolation-filters="sRGB">
<feFlood flood-opacity="0" result="BackgroundImageFix"/>
<feBlend mode="normal" in="SourceGraphic" in2="BackgroundImageFix" result="shape"/>
<feGaussianBlur stdDeviation="0.460904" result="effect1_foregroundBlur_341_2543"/>
</filter>
</defs>
</svg>
